<svg width="240" height="278" xmlns="http://www.w3.org/2000/svg" xmlns:xlink="http://www.w3.org/1999/xlink" overflow="hidden"><defs><clipPath id="clip0"><rect x="0" y="0" width="240" height="278"/></clipPath></defs><g clip-path="url(#clip0)"><rect x="0" y="0" width="240" height="278" fill="#FFFFFF"/><path d="M120 6 233 62.5 233 215.5 120 272 7 215.5 7 62.5Z" stroke="#404040" stroke-width="10.3333" stroke-linejoin="round" stroke-miterlimit="10" fill="#E2F0D9" fill-rule="evenodd"/><path d="M40.141 70.0171 46.6736 82.9299 48.463 82.0247C49.9891 81.2526 50.989 80.5342 51.4625 79.8695 51.9361 79.2047 52.1422 78.3581 52.0808 77.3296 52.0194 76.301 51.5102 74.841 50.5533 72.9495 49.2865 70.4454 48.0109 68.9378 46.7265 68.4268 45.4422 67.9157 43.8542 68.1386 41.9627 69.0955ZM30.1306 68.3594 40.98 62.8708C43.1187 61.7888 44.9931 61.205 46.6033 61.1193 48.2134 61.0336 49.7229 61.316 51.1318 61.9666 52.5408 62.6171 53.803 63.5645 54.9184 64.8089 56.0339 66.0533 56.9994 67.4816 57.8149 69.0937 59.0926 71.6193 59.796 73.7234 59.9251 75.406 60.0542 77.0887 59.8462 78.6585 59.3009 80.1154 58.7557 81.5723 57.9762 82.7529 56.9624 83.6572 55.5785 84.8972 54.2364 85.8461 52.936 86.504L42.0866 91.9926Z" fill="#4472C4" fill-rule="evenodd"/><text fill="#000000" fill-opacity="0" font-family="Arial,Arial_MSFontService,sans-serif" font-size="30.8883" x="30.1306" y="88.1316">D</text><path d="M72.1748 67.1098 73.5749 72.2896 77.6036 71.2007C78.964 70.8331 79.858 70.3325 80.2857 69.6992 80.7134 69.0658 80.8172 68.3422 80.5973 67.5283 80.393 66.7725 79.9527 66.2396 79.2762 65.9296 78.5998 65.6196 77.5698 65.6516 76.1862 66.0256ZM69.5492 57.3954 70.8597 62.2439 74.2955 61.3152C75.5279 60.9821 76.3281 60.5382 76.6959 59.9833 77.0637 59.4285 77.1392 58.75 76.9224 57.9477 76.7213 57.2036 76.3229 56.6875 75.7272 56.3993 75.1316 56.1111 74.2349 56.1289 73.0373 56.4526ZM60.1789 54.3697 74.9685 50.3724C77.4334 49.7062 79.4907 49.8051 81.1404 50.6693 82.79 51.5334 83.8584 52.8666 84.3455 54.6688 84.754 56.1803 84.6335 57.604 83.984 58.9399 83.5509 59.8305 82.7864 60.6485 81.6903 61.3939 83.6468 61.3392 85.2035 61.7325 86.3604 62.5739 87.5173 63.4153 88.3158 64.6499 88.7557 66.2776 89.114 67.6031 89.128 68.8782 88.7977 70.1028 88.4674 71.3274 87.8507 72.3924 86.9476 73.2978 86.3886 73.8606 85.4641 74.4099 84.1741 74.9457 82.458 75.659 81.3093 76.0943 80.7279 76.2514L67.0894 79.9377Z" fill="#4472C4" fill-rule="evenodd"/><text fill="#000000" fill-opacity="0" font-family="Arial,Arial_MSFontService,sans-serif" font-size="30.0003" x="60.1789" y="76.1876">B</text><path d="M102.548 45.304C105.918 44.9934 108.545 45.3832 110.43 46.4735 112.314 47.5638 113.551 49.4607 114.139 52.1642L106.498 53.322C106.185 52.1534 105.676 51.3294 104.973 50.8499 104.27 50.3705 103.342 50.1838 102.191 50.2899 101.243 50.3772 100.548 50.6439 100.106 51.0899 99.663 51.5359 99.4682 52.0467 99.5212 52.6224 99.5599 53.0421 99.7926 53.4017 100.219 53.701 100.635 54.0135 101.577 54.2533 103.043 54.4205 106.676 54.8598 109.299 55.4012 110.913 56.0448 112.526 56.6883 113.738 57.5594 114.546 58.6581 115.355 59.7568 115.826 61.0258 115.959 62.465 116.115 64.1561 115.79 65.7583 114.987 67.2718 114.183 68.7852 112.975 69.9881 111.364 70.8804 109.753 71.7728 107.67 72.3367 105.115 72.5721 100.63 72.9855 97.4439 72.4082 95.5577 70.8403 93.6715 69.2724 92.4918 67.1677 92.0185 64.5262L99.7275 63.3259C100.011 64.5697 100.442 65.4977 101.018 66.1098 101.956 67.0998 103.205 67.523 104.764 67.3793 105.927 67.2721 106.799 66.9166 107.378 66.3129 107.957 65.7092 108.214 65.0475 108.147 64.3279 108.084 63.6443 107.728 63.0602 107.079 62.5758 106.429 62.0913 104.991 61.7098 102.764 61.4313 99.1161 60.9571 96.4691 60.1246 94.8232 58.9337 93.1654 57.7439 92.2414 56.1175 92.0513 54.0547 91.9264 52.6994 92.2012 51.3829 92.8757 50.1052 93.5502 48.8274 94.6442 47.7711 96.1578 46.9361 97.6714 46.1011 99.8014 45.5571 102.548 45.304Z" fill="#4472C4" fill-rule="evenodd"/><text fill="#000000" fill-opacity="0" font-family="Arial,Arial_MSFontService,sans-serif" font-size="27.5008" x="92.0185" y="69.2639">S</text><path d="M134.583 45.05C137.91 45.2922 140.477 46.1553 142.283 47.6393 144.089 49.1233 145.353 51.2924 146.075 54.1466L138.751 55.2257C138.557 54.4025 138.336 53.7946 138.087 53.4021 137.676 52.7443 137.152 52.2231 136.516 51.8387 135.88 51.4542 135.153 51.2323 134.336 51.1728 132.487 51.0382 131.015 51.6789 129.922 53.0951 129.096 54.1447 128.598 55.8513 128.426 58.2147 128.213 61.1424 128.511 63.1815 129.321 64.332 130.131 65.4825 131.341 66.1164 132.95 66.2335 134.512 66.3472 135.724 65.9946 136.587 65.1759 137.45 64.3571 138.122 63.126 138.604 61.4824L145.6 64.1653C144.973 66.1365 144.095 67.7571 142.964 69.0273 141.833 70.2975 140.476 71.2193 138.895 71.7925 137.313 72.3657 135.339 72.5662 132.973 72.394 130.102 72.185 127.787 71.5972 126.028 70.6304 124.269 69.6637 122.805 68.0818 121.636 65.8848 120.468 63.6879 120.003 60.9507 120.241 57.6734 120.559 53.3039 121.966 50.0302 124.461 47.8524 126.957 45.6747 130.33 44.7405 134.583 45.05Z" fill="#4472C4" fill-rule="evenodd"/><text fill="#000000" fill-opacity="0" font-family="Arial,Arial_MSFontService,sans-serif" font-size="27.4614" x="120.181" y="69.021">C</text><path d="M164.295 57.2913 159.128 65.7957 164.762 67.24ZM161.773 49.5576 170.42 51.7744 173.484 79.9016 165.182 77.7734 164.984 73.2092 155.984 70.9019 153.648 74.8165 145.553 72.7414Z" fill="#4472C4" fill-rule="evenodd"/><text fill="#000000" fill-opacity="0" font-family="Arial,Arial_MSFontService,sans-serif" font-size="30.344" x="145.553" y="76.1086">A</text><path d="M186.863 56.8594 193.708 60.2574 196.125 77.8164 202.641 64.6916 209.551 68.1216 197.774 91.8449 190.864 88.4148 188.446 70.979 181.98 84.0047 175.087 80.5827Z" fill="#4472C4" fill-rule="evenodd"/><text fill="#000000" fill-opacity="0" font-family="Arial,Arial_MSFontService,sans-serif" font-size="34.9854" x="175.087" y="87.4717">N</text><text fill="#767171" font-family="Arial Black,Arial Black_MSFontService,sans-serif" font-weight="900" font-size="19" transform="translate(85.5831 245)">with <tspan fill="#4472C4" font-family="Calibri,Calibri_MSFontService,sans-serif" font-weight="700" font-size="32" x="50.8333" y="0">R</tspan><tspan font-size="19" x="-11.9202" y="-47">Discrete </tspan><tspan font-size="19" x="-33.3602" y="-24">Optimization</tspan></text><path d="M97.5001 143C97.5001 146.038 95.0376 148.5 92.0001 148.5 88.9625 148.5 86.5001 146.038 86.5001 143 86.5001 139.963 88.9625 137.5 92.0001 137.5 95.0376 137.5 97.5001 139.963 97.5001 143Z" stroke="#BC8C00" stroke-width="1.33333" stroke-miterlimit="8" fill="#FFC000" fill-rule="evenodd"/><path d="M102.5 125C102.5 128.038 100.038 130.5 97.0001 130.5 93.9625 130.5 91.5001 128.038 91.5001 125 91.5001 121.963 93.9625 119.5 97.0001 119.5 100.038 119.5 102.5 121.963 102.5 125Z" stroke="#BC8C00" stroke-width="1.33333" stroke-miterlimit="8" fill="#FFC000" fill-rule="evenodd"/><path d="M113.5 142C113.5 145.038 111.261 147.5 108.5 147.5 105.739 147.5 103.5 145.038 103.5 142 103.5 138.963 105.739 136.5 108.5 136.5 111.261 136.5 113.5 138.963 113.5 142Z" stroke="#BC8C00" stroke-width="1.33333" stroke-miterlimit="8" fill="#FFC000" fill-rule="evenodd"/><path d="M146.5 116C146.5 119.038 144.038 121.5 141 121.5 137.963 121.5 135.5 119.038 135.5 116 135.5 112.963 137.963 110.5 141 110.5 144.038 110.5 146.5 112.963 146.5 116Z" stroke="#AE5A21" stroke-width="1.33333" stroke-miterlimit="8" fill="#ED7D31" fill-rule="evenodd"/><path d="M133.5 105.5C133.5 108.261 131.261 110.5 128.5 110.5 125.739 110.5 123.5 108.261 123.5 105.5 123.5 102.739 125.739 100.5 128.5 100.5 131.261 100.5 133.5 102.739 133.5 105.5Z" stroke="#AE5A21" stroke-width="1.33333" stroke-miterlimit="8" fill="#ED7D31" fill-rule="evenodd"/><path d="M148.5 102C148.5 105.038 146.038 107.5 143 107.5 139.963 107.5 137.5 105.038 137.5 102 137.5 98.9625 139.963 96.5001 143 96.5001 146.038 96.5001 148.5 98.9625 148.5 102Z" stroke="#AE5A21" stroke-width="1.33333" stroke-miterlimit="8" fill="#ED7D31" fill-rule="evenodd"/><path d="M160.5 111C160.5 114.038 158.261 116.5 155.5 116.5 152.739 116.5 150.5 114.038 150.5 111 150.5 107.963 152.739 105.5 155.5 105.5 158.261 105.5 160.5 107.963 160.5 111Z" stroke="#AE5A21" stroke-width="1.33333" stroke-miterlimit="8" fill="#ED7D31" fill-rule="evenodd"/><path d="M143.5 161C143.5 164.038 141.038 166.5 138 166.5 134.963 166.5 132.5 164.038 132.5 161 132.5 157.963 134.963 155.5 138 155.5 141.038 155.5 143.5 157.963 143.5 161Z" stroke="#507E32" stroke-width="1.33333" stroke-miterlimit="8" fill="#70AD47" fill-rule="evenodd"/><path d="M159.5 154C159.5 157.038 157.038 159.5 154 159.5 150.963 159.5 148.5 157.038 148.5 154 148.5 150.963 150.963 148.5 154 148.5 157.038 148.5 159.5 150.963 159.5 154Z" stroke="#507E32" stroke-width="1.33333" stroke-miterlimit="8" fill="#70AD47" fill-rule="evenodd"/><path d="M146.5 147.5C146.5 150.261 144.038 152.5 141 152.5 137.963 152.5 135.5 150.261 135.5 147.5 135.5 144.739 137.963 142.5 141 142.5 144.038 142.5 146.5 144.739 146.5 147.5Z" stroke="#507E32" stroke-width="1.33333" stroke-miterlimit="8" fill="#70AD47" fill-rule="evenodd"/><path d="M70.5001 172.167 169.502 172.167 169.502 174.833 70.5001 174.833ZM168.169 169.5 176.169 173.5 168.169 177.5Z" fill="#4472C4"/><path d="M1.33333-1.49267e-06 1.33343 87.1131-1.33324 87.1131-1.33333 1.49267e-06ZM4.0001 85.7797 0.000104987 93.7797-3.9999 85.7797Z" fill="#4472C4" transform="matrix(1 0 0 -1 78.5001 180.28)"/></g></svg>